<svg width="56" height="59" viewBox="0 0 56 59" fill="none" xmlns="http://www.w3.org/2000/svg">
<path d="M37.2995 40.8354C44.0816 40.8354 49.5795 35.3374 49.5795 28.5554C49.5795 21.7733 44.0816 16.2754 37.2995 16.2754C30.5175 16.2754 25.0195 21.7733 25.0195 28.5554C25.0195 35.3374 30.5175 40.8354 37.2995 40.8354Z" fill="#0E0E15" stroke="#0E0E15" stroke-width="1.5" stroke-miterlimit="10"/>
<path d="M48.3998 38.5151L54.2198 49.5751L46.9998 49.1351L42.4998 53.9851L38.8398 44.1951" stroke="#0E0E15" stroke-width="1.5" stroke-miterlimit="10"/>
<path d="M28.0904 40.0654L23.9004 51.6054L31.1004 50.8754L36.1604 55.2254L38.5304 43.1354" stroke="#0E0E15" stroke-width="1.5" stroke-miterlimit="10"/>
<path d="M37.2999 36.4353C41.6519 36.4353 45.1799 32.9073 45.1799 28.5553C45.1799 24.2033 41.6519 20.6753 37.2999 20.6753C32.9479 20.6753 29.4199 24.2033 29.4199 28.5553C29.4199 32.9073 32.9479 36.4353 37.2999 36.4353Z" fill="#C216FF"/>
<path d="M37.2999 36.4353C41.6519 36.4353 45.1799 32.9073 45.1799 28.5553C45.1799 24.2033 41.6519 20.6753 37.2999 20.6753C32.9479 20.6753 29.4199 24.2033 29.4199 28.5553C29.4199 32.9073 32.9479 36.4353 37.2999 36.4353Z" stroke="#0E0E15" stroke-width="1.5" stroke-miterlimit="10"/>
<path d="M40.0909 25.9852C40.6309 26.6052 40.9609 27.4052 40.9609 28.2852C40.9609 30.2152 39.3909 31.7852 37.4609 31.7852C35.5309 31.7852 33.9609 30.2152 33.9609 28.2852C33.9609 26.3552 35.5309 24.7852 37.4609 24.7852C38.4009 24.7852 39.2509 25.1552 39.8809 25.7552L40.0909 25.9752V25.9852Z" stroke="#0E0E15" stroke-width="1.5" stroke-miterlimit="10"/>
<path d="M48.63 18.6852C50.95 21.3352 52.36 24.8052 52.36 28.6052C52.36 32.4052 50.9 36.0052 48.5 38.6752C45.74 41.7352 41.75 43.6652 37.31 43.6652C33.6 43.6652 30.21 42.3252 27.58 40.1052C24.32 37.3452 22.25 33.2152 22.25 28.6152C22.25 20.2952 28.99 13.5552 37.31 13.5552C41.36 13.5552 45.03 15.1552 47.74 17.7552L48.64 18.6952L48.63 18.6852Z" stroke="#0E0E15" stroke-width="1.5" stroke-miterlimit="10"/>
<path d="M31.0996 50.8753L33.0096 43.1353" stroke="#0E0E15" stroke-width="1.5" stroke-miterlimit="10"/>
<path d="M46.9993 49.1355L44.0293 42.3955" stroke="#0E0E15" stroke-width="1.5" stroke-miterlimit="10"/>
<path d="M48.3998 -6.54443L54.2198 4.51557L46.9998 4.06557L42.4998 8.92557L38.8398 -0.874434" stroke="#0E0E15" stroke-width="1.5" stroke-miterlimit="10"/>
<path d="M28.0904 -4.99463L23.9004 6.53537L31.1004 5.81537L36.1604 10.1554L38.5304 -1.92463" stroke="#0E0E15" stroke-width="1.5" stroke-miterlimit="10"/>
<path d="M31.0996 5.81543L33.0096 -1.93457" stroke="#0E0E15" stroke-width="1.5" stroke-miterlimit="10"/>
<path d="M46.9993 4.0652L44.0293 -2.6748" stroke="#0E0E15" stroke-width="1.5" stroke-miterlimit="10"/>
<path d="M-1.62039 65.7753C5.16167 65.7753 10.6596 60.2774 10.6596 53.4953C10.6596 46.7133 5.16167 41.2153 -1.62039 41.2153C-8.40245 41.2153 -13.9004 46.7133 -13.9004 53.4953C-13.9004 60.2774 -8.40245 65.7753 -1.62039 65.7753Z" fill="#0E0E15" stroke="#0E0E15" stroke-width="1.5" stroke-miterlimit="10"/>
<path d="M-1.62 61.3752C2.732 61.3752 6.26 57.8472 6.26 53.4952C6.26 49.1432 2.732 45.6152 -1.62 45.6152C-5.972 45.6152 -9.5 49.1432 -9.5 53.4952C-9.5 57.8472 -5.972 61.3752 -1.62 61.3752Z" fill="#C216FF"/>
<path d="M-1.62 61.3752C2.732 61.3752 6.26 57.8472 6.26 53.4952C6.26 49.1432 2.732 45.6152 -1.62 45.6152C-5.972 45.6152 -9.5 49.1432 -9.5 53.4952C-9.5 57.8472 -5.972 61.3752 -1.62 61.3752Z" stroke="#0E0E15" stroke-width="1.5" stroke-miterlimit="10"/>
<path d="M1.18078 50.9256C1.72078 51.5456 2.05078 52.3456 2.05078 53.2256C2.05078 55.1556 0.480781 56.7256 -1.44922 56.7256C-3.37922 56.7256 -4.94922 55.1556 -4.94922 53.2256C-4.94922 51.2956 -3.37922 49.7256 -1.44922 49.7256C-0.509219 49.7256 0.34078 50.0956 0.97078 50.6956L1.18078 50.9156V50.9256Z" stroke="#0E0E15" stroke-width="1.5" stroke-miterlimit="10"/>
<path d="M9.71008 43.6251C12.0301 46.2751 13.4401 49.7451 13.4401 53.5451C13.4401 57.3451 11.9801 60.9451 9.58008 63.6151C6.82008 66.6751 2.83008 68.6051 -1.60992 68.6051C-5.31992 68.6051 -8.70992 67.2651 -11.3399 65.0451C-14.5999 62.2851 -16.6699 58.1551 -16.6699 53.5551C-16.6699 45.2351 -9.92992 38.4951 -1.60992 38.4951C2.44008 38.4951 6.11008 40.0951 8.82008 42.6951L9.72008 43.6351L9.71008 43.6251Z" stroke="#0E0E15" stroke-width="1.5" stroke-miterlimit="10"/>
<path d="M-1.62039 20.7055C5.16167 20.7055 10.6596 15.2076 10.6596 8.42551C10.6596 1.64345 5.16167 -3.85449 -1.62039 -3.85449C-8.40245 -3.85449 -13.9004 1.64345 -13.9004 8.42551C-13.9004 15.2076 -8.40245 20.7055 -1.62039 20.7055Z" fill="#0E0E15" stroke="#0E0E15" stroke-width="1.5" stroke-miterlimit="10"/>
<path d="M9.48992 18.3955L15.3099 29.4555L8.07992 29.0055L3.58992 33.8655L-0.0800781 24.0755" stroke="#0E0E15" stroke-width="1.5" stroke-miterlimit="10"/>
<path d="M-10.8198 19.9453L-15.0098 31.4753L-7.81977 30.7553L-2.74977 35.0953L-0.379765 23.0153" stroke="#0E0E15" stroke-width="1.5" stroke-miterlimit="10"/>
<path d="M-1.62 16.3054C2.732 16.3054 6.26 12.7774 6.26 8.42541C6.26 4.0734 2.732 0.54541 -1.62 0.54541C-5.972 0.54541 -9.5 4.0734 -9.5 8.42541C-9.5 12.7774 -5.972 16.3054 -1.62 16.3054Z" fill="#C216FF"/>
<path d="M-1.62 16.3054C2.732 16.3054 6.26 12.7774 6.26 8.42541C6.26 4.0734 2.732 0.54541 -1.62 0.54541C-5.972 0.54541 -9.5 4.0734 -9.5 8.42541C-9.5 12.7774 -5.972 16.3054 -1.62 16.3054Z" stroke="#0E0E15" stroke-width="1.5" stroke-miterlimit="10"/>
<path d="M1.18078 5.86553C1.72078 6.48553 2.05078 7.28553 2.05078 8.16553C2.05078 10.0955 0.480781 11.6655 -1.44922 11.6655C-3.37922 11.6655 -4.94922 10.0955 -4.94922 8.16553C-4.94922 6.23553 -3.37922 4.66553 -1.44922 4.66553C-0.509219 4.66553 0.34078 5.03553 0.97078 5.63553L1.18078 5.85553V5.86553Z" stroke="#0E0E15" stroke-width="1.5" stroke-miterlimit="10"/>
<path d="M9.71008 -1.44471C12.0301 1.20529 13.4401 4.67529 13.4401 8.47529C13.4401 12.2753 11.9801 15.8753 9.58008 18.5453C6.82008 21.6053 2.83008 23.5353 -1.60992 23.5353C-5.31992 23.5353 -8.70992 22.1953 -11.3399 19.9753C-14.5999 17.2153 -16.6699 13.0853 -16.6699 8.48529C-16.6699 0.165293 -9.92992 -6.57471 -1.60992 -6.57471C2.44008 -6.57471 6.11008 -4.97471 8.82008 -2.37471L9.72008 -1.43471L9.71008 -1.44471Z" stroke="#0E0E15" stroke-width="1.5" stroke-miterlimit="10"/>
<path d="M8.07914 29.0051L5.11914 22.2651" stroke="#0E0E15" stroke-width="1.5" stroke-miterlimit="10"/>
</svg>
