<svg width="59" height="59" viewBox="0 0 59 59" fill="none" xmlns="http://www.w3.org/2000/svg">
<path d="M21.1804 49.8799H-13.8496V69.0199H21.1804V49.8799Z" stroke="#0E0E15" stroke-width="1.5" stroke-miterlimit="10"/>
<path d="M24.2304 46.8398H-13.8496V69.0198H24.2304V46.8398Z" stroke="#0E0E15" stroke-width="1.5" stroke-miterlimit="10"/>
<path d="M27.3904 43.6802H-13.8496V69.0202H27.3904V43.6802Z" stroke="#0E0E15" stroke-width="1.5" stroke-miterlimit="10"/>
<path d="M63.0697 50.0898H43.9297V85.1198H63.0697V50.0898Z" stroke="#0E0E15" stroke-width="1.5" stroke-miterlimit="10"/>
<path d="M63.0609 47.04H40.8809V85.12H63.0609V47.04Z" stroke="#0E0E15" stroke-width="1.5" stroke-miterlimit="10"/>
<path d="M63.0607 43.8799H37.7207V85.1199H63.0607V43.8799Z" stroke="#0E0E15" stroke-width="1.5" stroke-miterlimit="10"/>
<path d="M58.6403 -11.25H18.0703V7.89H58.6403V-11.25Z" stroke="#0E0E15" stroke-width="1.5" stroke-miterlimit="10"/>
<path d="M59.3109 -11.25H15.1309V10.93H59.3109V-11.25Z" stroke="#0E0E15" stroke-width="1.5" stroke-miterlimit="10"/>
<path d="M60.6498 -11.25H12.0898V14.09H60.6498V-11.25Z" stroke="#0E0E15" stroke-width="1.5" stroke-miterlimit="10"/>
<path d="M4.99 24.81C3.6 22.08 0.77 20.21 -2.5 20.21V26.39C-3.48 22.83 -6.73 20.21 -10.6 20.21C-15.24 20.21 -19 23.97 -19 28.61C-19 33.25 -15.24 37.01 -10.6 37.01C-6.73 37.01 -3.48 34.39 -2.5 30.83V37.01C0.77 37.01 3.6 35.14 4.99 32.41C6.38 35.14 9.21 37.01 12.48 37.01V20.21C9.21 20.21 6.38 22.08 4.99 24.81Z" fill="#0E0E15"/>
<path d="M41.5193 24.81C40.1293 22.08 37.2993 20.21 34.0293 20.21V26.39C33.0493 22.83 29.7993 20.21 25.9293 20.21C21.2893 20.21 17.5293 23.97 17.5293 28.61C17.5293 33.25 21.2893 37.01 25.9293 37.01C29.7993 37.01 33.0493 34.39 34.0293 30.83V37.01C37.2993 37.01 40.1293 35.14 41.5193 32.41C42.9093 35.14 45.7393 37.01 49.0093 37.01V20.21C45.7393 20.21 42.9093 22.08 41.5193 24.81Z" fill="#0E0E15"/>
</svg>
