<svg width="59" height="59" viewBox="0 0 59 59" fill="none" xmlns="http://www.w3.org/2000/svg">
<mask id="mask0_2039_1144" style="mask-type:alpha" maskUnits="userSpaceOnUse" x="0" y="0" width="59" height="59">
<rect x="0.34668" y="0.716797" width="57.823" height="57.823" rx="7.03497" fill="#C215FF"/>
</mask>
<g mask="url(#mask0_2039_1144)">
<path d="M45.2605 15.0849C46.0262 10.2782 42.9044 5.78929 38.2923 5.05977C33.6802 4.33024 29.4156 7.04243 28.5615 12.4374C27.0241 22.1212 42.2093 35.7116 42.2093 35.7116C42.2093 35.7116 60.6224 27.575 62.1834 17.7676C63.0433 12.3727 59.8272 8.47206 55.2151 7.74254C50.603 7.01301 46.2442 10.3135 45.4843 15.1202" stroke="#0E0E15" stroke-width="1.65342" stroke-miterlimit="10"/>
<path d="M57.8833 54.7329C62.968 54.7329 67.0899 50.6159 67.0899 45.5373C67.0899 40.4588 62.968 36.3418 57.8833 36.3418C52.7987 36.3418 48.6768 40.4588 48.6768 45.5373C48.6768 50.6159 52.7987 54.7329 57.8833 54.7329Z" stroke="#0E0E15" stroke-width="1.65342" stroke-miterlimit="10"/>
<path d="M57.8835 51.7969C61.3448 51.7969 64.1508 48.9943 64.1508 45.5371C64.1508 42.08 61.3448 39.2773 57.8835 39.2773C54.4222 39.2773 51.6162 42.08 51.6162 45.5371C51.6162 48.9943 54.4222 51.7969 57.8835 51.7969Z" stroke="#0E0E15" stroke-width="1.65342" stroke-miterlimit="10"/>
<path d="M57.8818 48.8669C59.723 48.8669 61.2157 47.376 61.2157 45.537C61.2157 43.6979 59.723 42.207 57.8818 42.207C56.0405 42.207 54.5479 43.6979 54.5479 45.537C54.5479 47.376 56.0405 48.8669 57.8818 48.8669Z" stroke="#0E0E15" stroke-width="1.65342" stroke-miterlimit="10"/>
<path d="M15.0493 9.33739C20.134 9.33739 24.2559 5.2204 24.2559 0.141839C24.2559 -4.93672 20.134 -9.05371 15.0493 -9.05371C9.96469 -9.05371 5.84277 -4.93672 5.84277 0.141839C5.84277 5.2204 9.96469 9.33739 15.0493 9.33739Z" stroke="#0E0E15" stroke-width="1.65342" stroke-miterlimit="10"/>
<path d="M15.0485 6.40143C18.5099 6.40143 21.3158 3.59883 21.3158 0.141634C21.3158 -3.31556 18.5099 -6.11816 15.0485 -6.11816C11.5872 -6.11816 8.78125 -3.31556 8.78125 0.141634C8.78125 3.59883 11.5872 6.40143 15.0485 6.40143Z" stroke="#0E0E15" stroke-width="1.65342" stroke-miterlimit="10"/>
<path d="M15.0497 3.47187C16.891 3.47187 18.3837 1.98101 18.3837 0.141942C18.3837 -1.69713 16.891 -3.18799 15.0497 -3.18799C13.2085 -3.18799 11.7158 -1.69713 11.7158 0.141942C11.7158 1.98101 13.2085 3.47187 15.0497 3.47187Z" stroke="#0E0E15" stroke-width="1.65342" stroke-miterlimit="10"/>
<path d="M-0.236806 32.623C4.84783 32.623 8.96975 28.506 8.96975 23.4275C8.96975 18.3489 4.84783 14.2319 -0.236806 14.2319C-5.32144 14.2319 -9.44336 18.3489 -9.44336 23.4275C-9.44336 28.506 -5.32144 32.623 -0.236806 32.623Z" stroke="#0E0E15" stroke-width="1.65342" stroke-miterlimit="10"/>
<path d="M-0.237593 29.6881C3.22374 29.6881 6.0297 26.8854 6.0297 23.4283C6.0297 19.9711 3.22374 17.1685 -0.237593 17.1685C-3.69892 17.1685 -6.50488 19.9711 -6.50488 23.4283C-6.50488 26.8854 -3.69892 29.6881 -0.237593 29.6881Z" stroke="#0E0E15" stroke-width="1.65342" stroke-miterlimit="10"/>
<path d="M-0.237374 26.7575C1.6039 26.7575 3.09654 25.2667 3.09654 23.4276C3.09654 21.5885 1.6039 20.0977 -0.237374 20.0977C-2.07864 20.0977 -3.57129 21.5885 -3.57129 23.4276C-3.57129 25.2667 -2.07864 26.7575 -0.237374 26.7575Z" stroke="#0E0E15" stroke-width="1.65342" stroke-miterlimit="10"/>
<path d="M43.2661 46.5202C43.6814 44.5655 42.5115 42.6615 40.6531 42.2677C38.7946 41.8738 36.9514 43.1391 36.5361 45.0939C36.1208 47.0487 37.2907 48.9526 39.1492 49.3465C41.0076 49.7404 42.8509 48.475 43.2661 46.5202Z" fill="#0E0E15"/>
<path d="M4.11381 50.9465C4.52909 48.9918 3.35917 47.0878 1.50072 46.6939C-0.357732 46.3001 -2.20095 47.5654 -2.61623 49.5202C-3.03151 51.4749 -1.8616 53.3789 -0.00314682 53.7727C1.8553 54.1666 3.69853 52.9013 4.11381 50.9465Z" fill="#0E0E15"/>
<path d="M21.5464 18.4695C21.9617 16.5147 20.7918 14.6108 18.9333 14.2169C17.0749 13.823 15.2317 15.0884 14.8164 17.0431C14.4011 18.9979 15.571 20.9018 17.4295 21.2957C19.2879 21.6896 21.1311 20.4242 21.5464 18.4695Z" fill="#0E0E15"/>
<path d="M19.7682 28.1396L23.7795 36.1174L34.9122 36.8704L27.3903 43.7774L30.5711 53.1141L21.2938 48.8488L12.747 54.4261L14.5259 44.7187L6.06738 38.9884L16.9703 36.6174L19.7682 28.1396Z" fill="#0E0E15" stroke="#0E0E15" stroke-width="1.65342" stroke-miterlimit="10"/>
</g>
</svg>
