<svg width="59" height="59" viewBox="0 0 59 59" fill="none" xmlns="http://www.w3.org/2000/svg">
<mask id="mask0_2075_121" style="mask-type:luminance" maskUnits="userSpaceOnUse" x="0" y="0" width="59" height="59">
<path d="M51.4898 0.380371H8.30984C4.18428 0.380371 0.839844 3.7248 0.839844 7.85037V51.0304C0.839844 55.1559 4.18428 58.5004 8.30984 58.5004H51.4898C55.6154 58.5004 58.9598 55.1559 58.9598 51.0304V7.85037C58.9598 3.7248 55.6154 0.380371 51.4898 0.380371Z" fill="white"/>
</mask>
<g mask="url(#mask0_2075_121)">
<path d="M13.06 39.7005C11.65 39.9705 10.19 40.1105 8.7 40.1105C-3.97 40.1105 -14.25 29.8405 -14.25 17.1604C-14.25 4.48045 -3.97 -5.78955 8.7 -5.78955C19.79 -5.78955 29.05 2.08045 31.19 12.5404" stroke="#0E0E15" stroke-width="1.5" stroke-miterlimit="10"/>
<path d="M1.71039 16.0103C4.36688 16.0103 6.52039 13.324 6.52039 10.0103C6.52039 6.69654 4.36688 4.01025 1.71039 4.01025C-0.9461 4.01025 -3.09961 6.69654 -3.09961 10.0103C-3.09961 13.324 -0.9461 16.0103 1.71039 16.0103Z" fill="#0E0E15"/>
<path d="M15.6899 16.0103C18.3464 16.0103 20.4999 13.324 20.4999 10.0103C20.4999 6.69654 18.3464 4.01025 15.6899 4.01025C13.0334 4.01025 10.8799 6.69654 10.8799 10.0103C10.8799 13.324 13.0334 16.0103 15.6899 16.0103Z" fill="#0E0E15"/>
<path d="M-1.99023 28.7602C-1.99023 25.2902 2.90976 22.4702 8.95976 22.4702C11.9798 22.4702 14.7198 23.1702 16.6998 24.3102" stroke="#0E0E15" stroke-width="1.5" stroke-miterlimit="10"/>
<path d="M41.7498 63.6305C54.4247 63.6305 64.6998 53.3554 64.6998 40.6805C64.6998 28.0055 54.4247 17.7305 41.7498 17.7305C29.0749 17.7305 18.7998 28.0055 18.7998 40.6805C18.7998 53.3554 29.0749 63.6305 41.7498 63.6305Z" stroke="#0E0E15" stroke-width="1.5" stroke-miterlimit="10"/>
<path d="M34.7602 39.5205C37.4167 39.5205 39.5702 36.8342 39.5702 33.5205C39.5702 30.2068 37.4167 27.5205 34.7602 27.5205C32.1037 27.5205 29.9502 30.2068 29.9502 33.5205C29.9502 36.8342 32.1037 39.5205 34.7602 39.5205Z" fill="#0E0E15"/>
<path d="M48.7397 39.5205C51.3962 39.5205 53.5497 36.8342 53.5497 33.5205C53.5497 30.2068 51.3962 27.5205 48.7397 27.5205C46.0832 27.5205 43.9297 30.2068 43.9297 33.5205C43.9297 36.8342 46.0832 39.5205 48.7397 39.5205Z" fill="#0E0E15"/>
<path d="M52.8502 46.4404C52.8502 49.9104 47.9502 52.7304 41.9002 52.7304C35.8502 52.7304 30.9502 49.9104 30.9502 46.4404" stroke="#0E0E15" stroke-width="2" stroke-miterlimit="10"/>
<path d="M41.7498 66.8805C56.2197 66.8805 67.9498 55.1503 67.9498 40.6805C67.9498 26.2106 56.2197 14.4805 41.7498 14.4805C27.2799 14.4805 15.5498 26.2106 15.5498 40.6805C15.5498 55.1503 27.2799 66.8805 41.7498 66.8805Z" stroke="#0E0E15" stroke-width="1.5" stroke-miterlimit="10"/>
<path d="M41.7504 70.0306C57.9599 70.0306 71.1004 56.8901 71.1004 40.6806C71.1004 24.471 57.9599 11.3306 41.7504 11.3306C25.5408 11.3306 12.4004 24.471 12.4004 40.6806C12.4004 56.8901 25.5408 70.0306 41.7504 70.0306Z" stroke="#0E0E15" stroke-width="1.5" stroke-miterlimit="10"/>
</g>
</svg>
