<svg width="59" height="59" viewBox="0 0 59 59" fill="none" xmlns="http://www.w3.org/2000/svg">
<mask id="mask0_2076_501" style="mask-type:luminance" maskUnits="userSpaceOnUse" x="0" y="0" width="59" height="59">
<path d="M51.3004 0.371582H8.12039C3.99482 0.371582 0.650391 3.71602 0.650391 7.84158V51.0216C0.650391 55.1472 3.99482 58.4916 8.12039 58.4916H51.3004C55.426 58.4916 58.7704 55.1472 58.7704 51.0216V7.84158C58.7704 3.71602 55.426 0.371582 51.3004 0.371582Z" fill="white"/>
</mask>
<g mask="url(#mask0_2076_501)">
<path d="M34.8501 12.4116H8.60008C4.17008 12.4116 0.580078 16.0016 0.580078 20.4316C0.580078 24.8616 4.17008 28.4516 8.60008 28.4516H14.1701L21.2001 34.1616V28.4516H34.8501C39.2801 28.4516 42.8701 24.8616 42.8701 20.4316C42.8701 16.0016 39.2801 12.4116 34.8501 12.4116Z" fill="#0E0E15"/>
<path d="M34.8501 36.1318H8.60008C4.17008 36.1318 0.580078 39.7218 0.580078 44.1518C0.580078 48.5818 4.17008 52.1718 8.60008 52.1718H14.1701L21.2001 57.8818V52.1718H34.8501C39.2801 52.1718 42.8701 48.5818 42.8701 44.1518C42.8701 39.7218 39.2801 36.1318 34.8501 36.1318Z" stroke="#0E0E15" stroke-width="1.5" stroke-miterlimit="10"/>
<path d="M10.9307 42.272H35.9307" stroke="#0E0E15" stroke-width="1.5" stroke-miterlimit="10"/>
<path d="M10.9307 46.1719H35.9307" stroke="#0E0E15" stroke-width="1.5" stroke-miterlimit="10"/>
<path d="M78.2602 12.7417H52.0102C47.5802 12.7417 43.9902 16.3317 43.9902 20.7617C43.9902 25.1917 47.5802 28.7817 52.0102 28.7817H57.5802L64.6102 34.4917V28.7817H78.2602C82.6902 28.7817 86.2802 25.1917 86.2802 20.7617C86.2802 16.3317 82.6902 12.7417 78.2602 12.7417Z" fill="#0E0E15" stroke="#0E0E15" stroke-width="1.5" stroke-miterlimit="10"/>
<path d="M78.1499 35.9316H51.8999C47.4699 35.9316 43.8799 39.5216 43.8799 43.9516C43.8799 48.3816 47.4699 51.9716 51.8999 51.9716H57.4699L64.4999 57.6816V51.9716H78.1499C82.5799 51.9716 86.1699 48.3816 86.1699 43.9516C86.1699 39.5216 82.5799 35.9316 78.1499 35.9316Z" stroke="#0E0E15" stroke-width="1.5" stroke-miterlimit="10"/>
<path d="M52.3799 42.4819H77.3799" stroke="#0E0E15" stroke-width="1.5" stroke-miterlimit="10"/>
<path d="M52.3799 46.3716H77.3799" stroke="#0E0E15" stroke-width="1.5" stroke-miterlimit="10"/>
<path d="M34.4702 -12.1782H8.2202C3.7902 -12.1782 0.200195 -8.58822 0.200195 -4.15822C0.200195 0.271778 3.7902 3.86178 8.2202 3.86178H13.7902L20.8202 9.57178V3.86178H34.4702C38.9002 3.86178 42.4902 0.271778 42.4902 -4.15822C42.4902 -8.58822 38.9002 -12.1782 34.4702 -12.1782Z" stroke="#0E0E15" stroke-width="1.5" stroke-miterlimit="10"/>
<path d="M78.0298 -12.1782H51.7798C47.3498 -12.1782 43.7598 -8.58822 43.7598 -4.15822C43.7598 0.271778 47.3498 3.86178 51.7798 3.86178H57.3498L64.3798 9.57178V3.86178H78.0298C82.4598 3.86178 86.0498 0.271778 86.0498 -4.15822C86.0498 -8.58822 82.4598 -12.1782 78.0298 -12.1782Z" stroke="#0E0E15" stroke-width="1.5" stroke-miterlimit="10"/>
</g>
</svg>
