<svg width="59" height="59" viewBox="0 0 59 59" fill="none" xmlns="http://www.w3.org/2000/svg">
<mask id="mask0_2075_231" style="mask-type:luminance" maskUnits="userSpaceOnUse" x="0" y="0" width="59" height="59">
<path d="M50.65 0.396484H7.47C3.34443 0.396484 0 3.74092 0 7.86648V51.0465C0 55.1721 3.34443 58.5165 7.47 58.5165H50.65C54.7756 58.5165 58.12 55.1721 58.12 51.0465V7.86648C58.12 3.74092 54.7756 0.396484 50.65 0.396484Z" fill="white"/>
</mask>
<g mask="url(#mask0_2075_231)">
<path d="M71.3097 4.5166H47.9697V30.2466H71.3097V4.5166Z" stroke="#0E0E15" stroke-width="1.5" stroke-miterlimit="10"/>
<path d="M48.3301 10.6665H71.3001" stroke="#0E0E15" stroke-width="1.5" stroke-miterlimit="10"/>
<path d="M47.8296 14.8267H38.8096V-10.9033H62.1496V3.99668" stroke="#0E0E15" stroke-width="1.5" stroke-miterlimit="10"/>
<path d="M71.2997 4.5166H47.9697V10.6766H71.2997V4.5166Z" fill="#0E0E15"/>
<path d="M14.5397 35.1167H6.21973V9.38672H30.8397V24.2767" stroke="#0E0E15" stroke-width="1.5" stroke-miterlimit="10"/>
<path d="M6.58984 15.5366H30.8498" stroke="#0E0E15" stroke-width="1.5" stroke-miterlimit="10"/>
<path d="M8.95996 9.24658V16.0666" stroke="#0E0E15" stroke-width="1.5" stroke-miterlimit="10"/>
<path d="M11.6895 9.47656V16.0666" stroke="#0E0E15" stroke-width="1.5" stroke-miterlimit="10"/>
<path d="M14.4297 9.18652V15.6165" stroke="#0E0E15" stroke-width="1.5" stroke-miterlimit="10"/>
<path d="M17.1699 8.9668V15.7968" stroke="#0E0E15" stroke-width="1.5" stroke-miterlimit="10"/>
<path d="M22.6396 9.29688V15.6169" stroke="#0E0E15" stroke-width="1.5" stroke-miterlimit="10"/>
<path d="M25.3701 8.9668V15.2868" stroke="#0E0E15" stroke-width="1.5" stroke-miterlimit="10"/>
<path d="M28.1094 8.9668V15.2368" stroke="#0E0E15" stroke-width="1.5" stroke-miterlimit="10"/>
<path d="M19.8994 9.07666V15.0167" stroke="#0E0E15" stroke-width="1.5" stroke-miterlimit="10"/>
<path d="M38.7098 24.7969H14.0898V30.9569H38.7098V24.7969Z" fill="#0E0E15"/>
<path d="M14.0898 30.9565H38.7098" stroke="#0E0E15" stroke-width="1.5" stroke-miterlimit="10"/>
<path d="M27.6198 50.5266H14.0898V24.7866H38.7098V39.2266" stroke="#0E0E15" stroke-width="1.5" stroke-miterlimit="10"/>
<path d="M27.8398 59.2965V39.6465H52.4498V58.8465" stroke="#0E0E15" stroke-width="1.5" stroke-miterlimit="10"/>
<path d="M28.2002 45.7969H52.4602" stroke="#0E0E15" stroke-width="1.5" stroke-miterlimit="10"/>
<path d="M30.5693 39.5068V46.3268" stroke="#0E0E15" stroke-width="1.5" stroke-miterlimit="10"/>
<path d="M33.3096 39.7368V46.3268" stroke="#0E0E15" stroke-width="1.5" stroke-miterlimit="10"/>
<path d="M36.0498 39.4468V45.8768" stroke="#0E0E15" stroke-width="1.5" stroke-miterlimit="10"/>
<path d="M38.7793 39.2266V46.0566" stroke="#0E0E15" stroke-width="1.5" stroke-miterlimit="10"/>
<path d="M44.25 39.5669V45.8769" stroke="#0E0E15" stroke-width="1.5" stroke-miterlimit="10"/>
<path d="M46.9893 39.2266V45.5466" stroke="#0E0E15" stroke-width="1.5" stroke-miterlimit="10"/>
<path d="M49.7295 39.2266V45.4966" stroke="#0E0E15" stroke-width="1.5" stroke-miterlimit="10"/>
<path d="M41.5195 39.3369V45.2769" stroke="#0E0E15" stroke-width="1.5" stroke-miterlimit="10"/>
</g>
</svg>
