<svg width="25" height="19" viewBox="0 0 25 19" fill="none" xmlns="http://www.w3.org/2000/svg">
<g clip-path="url(#clip0_6023_655)">
<path d="M20.6764 3.45479C19.1904 2.25181 17.4763 1.51272 15.6758 0.923021C15.8094 0.655691 15.9903 0.59279 16.2733 0.616377C18.2233 0.797218 19.9609 1.51272 21.5492 2.62135C21.7064 2.73143 21.8479 2.89654 21.9344 3.06166C23.0745 5.35755 23.8529 7.77138 24.3483 10.2796C24.6392 11.7656 24.7886 13.2595 24.8121 14.7691C24.8121 14.9343 24.7492 15.1308 24.647 15.2645C23.6092 16.6247 22.2175 17.466 20.582 17.8827C19.9452 18.0479 19.2768 18.1029 18.6242 18.1894C18.5299 18.2051 18.3884 18.1658 18.3333 18.1029C17.9009 17.5997 17.492 17.0808 17.0439 16.5304C18.5299 16.0586 19.8194 15.3352 20.8179 14.0458C15.3455 17.2066 9.94389 17.1122 4.55011 14.1087C4.66019 14.431 5.27348 15.0601 6.08333 15.5475C6.70448 15.9171 7.36494 16.208 8.03326 16.5382C8.01754 16.5618 7.98609 16.6247 7.93891 16.6876C7.57723 17.1358 7.22341 17.584 6.85387 18.0243C6.7831 18.1108 6.64944 18.2051 6.54722 18.1973C5.2263 18.1343 3.96041 17.8434 2.78888 17.2144C1.9633 16.7741 1.23994 16.2001 0.642378 15.4768C0.430086 15.2173 0.296421 14.9578 0.304284 14.5962C0.422224 11.6084 0.972609 8.70704 2.01048 5.90007C2.37216 4.93297 2.80461 3.98945 3.22133 3.04593C3.29209 2.88082 3.43362 2.73143 3.58301 2.62135C4.94324 1.66997 6.42928 1.00165 8.08044 0.718592C8.39495 0.663553 8.70945 0.62424 9.02396 0.616377C9.14976 0.616377 9.27556 0.702867 9.3935 0.797218C7.44357 1.44196 5.60371 2.22822 3.96041 3.54128C9.55862 0.867982 15.1096 0.74218 20.6764 3.46265V3.45479ZM8.64655 13.0944C9.13403 13.0944 9.57434 12.9371 9.94389 12.6226C10.5414 12.1194 10.7302 11.459 10.8166 10.7042C10.9975 9.12376 9.24411 7.94436 7.82884 8.57337C6.80669 9.02154 6.26417 10.256 6.58654 11.4118C6.86959 12.4182 7.68731 13.0944 8.64655 13.0944ZM16.3284 13.1258C16.5642 13.0708 16.8158 13.0472 17.036 12.9607C18.4513 12.4103 18.923 10.5312 17.9716 9.25742C17.1932 8.21955 15.7308 8.10948 14.8345 9.04513C14.2683 9.63483 14.0875 10.3503 14.1819 11.1523C14.3155 12.2374 15.259 13.1101 16.3284 13.1337V13.1258Z" fill="#FFFCF7"/>
</g>
<defs>
<clipPath id="clip0_6023_655">
<rect width="24.5" height="17.5966" fill="white" transform="translate(0.312134 0.608398)"/>
</clipPath>
</defs>
</svg>
