<svg width="11" height="21" viewBox="0 0 11 21" fill="none" xmlns="http://www.w3.org/2000/svg">
<g clip-path="url(#clip0_6023_624)">
<path d="M0.547302 10.9595V7.53738C1.44787 7.53738 2.34843 7.53738 3.24899 7.53738C3.51916 7.53738 3.59121 7.43832 3.5822 7.18616C3.5822 6.70886 3.5822 6.23156 3.5822 5.75426C3.5728 5.01947 3.61795 4.28499 3.71729 3.55689C3.85951 2.74546 4.25505 1.99992 4.84719 1.42719C5.43933 0.85447 6.19764 0.483989 7.01335 0.368889C8.20974 0.224042 9.41923 0.224042 10.6156 0.368889C10.6877 0.368889 10.7957 0.485962 10.8047 0.558007C10.8047 1.5126 10.8047 2.47621 10.8047 3.45782H10.4445C9.87715 3.45782 9.30079 3.45782 8.73343 3.45782C8.52333 3.43718 8.31128 3.46415 8.11304 3.53673C7.91479 3.60932 7.73546 3.72564 7.58836 3.87707C7.44126 4.0285 7.33018 4.21113 7.26337 4.41139C7.19656 4.61165 7.17575 4.8244 7.20247 5.03381C7.20247 5.73625 7.20247 6.4477 7.20247 7.15914C7.19508 7.26107 7.19508 7.3634 7.20247 7.46533H10.6516L10.2104 10.9145H7.19347V19.5779C7.19347 19.704 7.19347 19.8301 7.19347 19.9562H3.59121C3.59121 19.9111 3.59121 19.8751 3.59121 19.8301V11.1847C3.59693 11.0857 3.59693 10.9865 3.59121 10.8875L0.547302 10.9595Z" fill="#FFFCF7"/>
</g>
<defs>
<clipPath id="clip0_6023_624">
<rect width="10.2574" height="19.7674" fill="white" transform="translate(0.547302 0.260742)"/>
</clipPath>
</defs>
</svg>
