<svg width="20" height="21" viewBox="0 0 20 21" fill="none" xmlns="http://www.w3.org/2000/svg">
<g clip-path="url(#clip0_6023_642)">
<path d="M18.9948 20.0278C18.9948 16.9858 19.0668 13.9978 18.9948 11.0278C19.047 10.0146 18.749 9.01429 18.1508 8.19486C17.5526 7.37543 16.6907 6.78679 15.7098 6.52778C14.7965 6.26661 13.8268 6.27826 12.9201 6.56131C12.0134 6.84436 11.2093 7.38644 10.6068 8.12078C10.5105 8.22266 10.4083 8.31882 10.3008 8.40878V6.43778H6.63777V20.0098H10.3368C10.3368 17.7508 10.3368 15.5098 10.3368 13.3228C10.3396 12.6859 10.4681 12.0559 10.7148 11.4688C10.9014 11.0123 11.2341 10.6305 11.6607 10.383C12.0873 10.1355 12.5838 10.0362 13.0728 10.1008C13.5336 10.1263 13.9739 10.2992 14.3288 10.5942C14.6838 10.8892 14.9344 11.2904 15.0438 11.7388C15.1981 12.2526 15.277 12.7862 15.2778 13.3228C15.2778 15.1228 15.2778 17.0128 15.2778 18.8488V20.0278H18.9948ZM0.436772 6.41078V20.0278H4.09077V6.41078H0.436772ZM4.41477 2.63078C4.42199 2.05466 4.20064 1.49916 3.79918 1.08589C3.39772 0.672618 2.84886 0.435259 2.27277 0.425781C1.69586 0.428151 1.14325 0.658379 0.735311 1.06632C0.327369 1.47426 0.0971414 2.02687 0.0947721 2.60378C0.0887822 2.88884 0.139762 3.17222 0.244723 3.43732C0.349683 3.70241 0.506512 3.94388 0.706015 4.14758C0.905517 4.35127 1.14368 4.51309 1.40654 4.62354C1.66939 4.73398 1.95165 4.79084 2.23677 4.79078C2.52227 4.79437 2.80562 4.74108 3.07031 4.63402C3.335 4.52697 3.57573 4.36829 3.77845 4.16724C3.98118 3.96618 4.14186 3.72678 4.2511 3.46299C4.36035 3.1992 4.41599 2.9163 4.41477 2.63078Z" fill="#FFFCF7"/>
<path d="M18.9948 20.0279H15.3048V18.8489C15.3048 17.0489 15.3048 15.1679 15.3048 13.3229C15.304 12.7863 15.2252 12.2527 15.0708 11.7389C14.9615 11.2905 14.7108 10.8892 14.3559 10.5943C14.001 10.2993 13.5606 10.1263 13.0998 10.1009C12.6109 10.0363 12.1143 10.1356 11.6877 10.383C11.2611 10.6305 10.9285 11.0124 10.7418 11.4689C10.4951 12.056 10.3667 12.686 10.3638 13.3229C10.3188 15.5369 10.3638 17.7509 10.3638 20.0099H6.63782V6.43786H10.3008V8.43586C10.4083 8.3459 10.5105 8.24973 10.6068 8.14786C11.2093 7.41352 12.0134 6.87144 12.9201 6.58839C13.8269 6.30534 14.7966 6.29368 15.7098 6.55486C16.6907 6.81386 17.5527 7.40251 18.1508 8.22194C18.749 9.04136 19.047 10.0417 18.9948 11.0549C19.0848 13.9979 18.9948 16.9859 18.9948 20.0279Z" fill="#FFFCF7"/>
<path d="M0.436829 6.41113H4.09083V20.0281H0.436829V6.41113Z" fill="#FFFCF7"/>
<path d="M4.41477 2.63078C4.41599 2.9163 4.36035 3.1992 4.2511 3.46299C4.14186 3.72678 3.98118 3.96618 3.77845 4.16724C3.57573 4.36829 3.335 4.52697 3.07031 4.63402C2.80562 4.74108 2.52227 4.79437 2.23677 4.79078C1.95165 4.79084 1.66939 4.73398 1.40654 4.62354C1.14368 4.51309 0.905517 4.35127 0.706015 4.14758C0.506512 3.94388 0.349683 3.70241 0.244723 3.43732C0.139762 3.17222 0.0887822 2.88884 0.0947721 2.60378C0.0971414 2.02687 0.327369 1.47426 0.735311 1.06632C1.14325 0.658379 1.69586 0.428151 2.27277 0.425781C2.84886 0.435259 3.39772 0.672618 3.79918 1.08589C4.20064 1.49916 4.42199 2.05466 4.41477 2.63078Z" fill="#FFFCF7"/>
</g>
<defs>
<clipPath id="clip0_6023_642">
<rect width="18.945" height="19.602" fill="white" transform="translate(0.0948486 0.425781)"/>
</clipPath>
</defs>
</svg>
