<svg width="52" height="34" viewBox="0 0 52 34" fill="none" xmlns="http://www.w3.org/2000/svg">
<path d="M5.85156 8.15869H0.351562V13.6587H5.85156V8.15869Z" fill="#FF4F15"/>
<path d="M5.85156 15.5884H0.351562V21.0884H5.85156V15.5884Z" fill="#FF4F15"/>
<path d="M11.3516 21.0884H5.85156V26.5884H11.3516V21.0884Z" fill="#FF4F15"/>
<path d="M16.8516 26.5884H11.3516V32.0884H16.8516V26.5884Z" fill="#FF4F15"/>
<path d="M5.85156 0.658691H0.351562V6.15869H5.85156V0.658691Z" fill="#FF4F15"/>
<path d="M13.3516 8.15869H7.85156V13.6587H13.3516V8.15869Z" fill="#FF4F15"/>
<path d="M13.3516 0.658691H7.85156V6.15869H13.3516V0.658691Z" fill="#FF4F15"/>
<path d="M20.8516 8.15869H15.3516V13.6587H20.8516V8.15869Z" fill="#FF4F15"/>
<path d="M20.8516 0.658691H15.3516V6.15869H20.8516V0.658691Z" fill="#FF4F15"/>
<path d="M34.9199 8.15869H29.4199V13.6587H34.9199V8.15869Z" fill="#FF4F15"/>
<path d="M34.9199 15.5884H29.4199V21.0884H34.9199V15.5884Z" fill="#FF4F15"/>
<path d="M40.4199 21.0884H34.9199V26.5884H40.4199V21.0884Z" fill="#FF4F15"/>
<path d="M45.9199 26.5884H40.4199V32.0884H45.9199V26.5884Z" fill="#FF4F15"/>
<path d="M34.9199 0.658691H29.4199V6.15869H34.9199V0.658691Z" fill="#FF4F15"/>
<path d="M42.4199 8.15869H36.9199V13.6587H42.4199V8.15869Z" fill="#FF4F15"/>
<path d="M42.4199 0.658691H36.9199V6.15869H42.4199V0.658691Z" fill="#FF4F15"/>
<path d="M49.9199 8.15869H44.4199V13.6587H49.9199V8.15869Z" fill="#FF4F15"/>
<path d="M49.9199 0.658691H44.4199V6.15869H49.9199V0.658691Z" fill="#FF4F15"/>
</svg>
