<svg width="18" height="19" viewBox="0 0 18 19" fill="none" xmlns="http://www.w3.org/2000/svg">
<g clip-path="url(#clip0_6023_658)">
<path d="M12.3638 18.6091L7.80338 11.975L2.09701 18.6091H0L6.8757 10.6186L0.0623647 0.702637H5.69078L10.0017 6.97808L15.4041 0.702637H17.5011L10.9372 8.33451L17.9922 18.6091H12.3638ZM15.0767 17.0734L4.73971 2.28514H2.97012L13.3071 17.0734H15.0767Z" fill="#FFFCF7"/>
<path d="M10.6566 8.31844L17.0178 0.928223H15.5132L9.99397 7.34399L5.57387 0.928223H0.49115L7.15637 10.6337L0.49115 18.3825H1.9957L7.82679 11.6082L12.4808 18.3825H17.5635L10.6488 8.31844H10.6566ZM8.59076 10.7195L7.91254 9.75282L2.54139 2.05858H4.85668L9.19882 8.26387L9.87703 9.23052L15.5132 17.2989H13.198L8.59856 10.7195H8.59076Z" fill="#FFFCF7"/>
</g>
<defs>
<clipPath id="clip0_6023_658">
<rect width="18" height="17.9065" fill="white" transform="translate(0 0.702148)"/>
</clipPath>
</defs>
</svg>
