<svg width="221" height="39" viewBox="0 0 221 39" fill="none" xmlns="http://www.w3.org/2000/svg">
<g clip-path="url(#clip0_4052_153)">
<path fill-rule="evenodd" clip-rule="evenodd" d="M19.2545 38.6603C27.7535 38.6603 34.947 33.0986 37.3947 25.4155V38.6603C37.4627 38.6603 37.5443 38.6603 37.6123 38.6603C45.2409 38.6603 51.8225 34.1729 54.855 27.7001C57.8874 34.1729 64.469 38.6603 72.0977 38.6603C72.1249 38.6603 72.1521 38.6603 72.1793 38.6603C72.2337 38.6603 72.2745 38.6603 72.3288 38.6603V0.584961C72.2609 0.584961 72.1793 0.584961 72.1113 0.584961C64.4826 0.584961 57.901 5.07242 54.8686 11.5452C51.8225 5.07242 45.2545 0.584961 37.6259 0.584961C37.5443 0.584961 37.4763 0.584961 37.4083 0.584961V13.8298C34.947 6.14669 27.7535 0.584961 19.2545 0.584961C8.74296 0.584961 0.216797 9.11113 0.216797 19.6227C0.216797 30.1342 8.74296 38.6603 19.2545 38.6603Z" fill="#FFFCF7"/>
<path d="M213.779 25.8245C212.406 25.8245 211.196 25.5118 210.162 24.8998C209.129 24.2607 208.326 23.4176 207.742 22.3433C207.184 21.2691 206.898 20.0996 206.898 18.8078C206.898 17.5159 207.17 16.3193 207.714 15.2722C208.258 14.1979 209.033 13.3548 210.053 12.7429C211.073 12.1038 212.27 11.791 213.643 11.791C215.017 11.791 216.24 12.1038 217.233 12.7429C218.253 13.3548 219.028 14.1979 219.572 15.2722C220.116 16.3193 220.388 17.5023 220.388 18.8078V19.6237H208.993C209.101 20.426 209.36 21.1603 209.754 21.8266C210.176 22.4793 210.72 23.0097 211.413 23.404C212.107 23.7848 212.895 23.9751 213.806 23.9751C214.772 23.9751 215.574 23.7712 216.227 23.3496C216.88 22.9145 217.383 22.3569 217.75 21.6906H219.98C219.504 22.9009 218.756 23.9071 217.723 24.6823C216.703 25.4438 215.397 25.8245 213.779 25.8245ZM209.02 17.7199H218.267C218.09 16.564 217.6 15.585 216.798 14.8098C215.996 14.0347 214.949 13.6404 213.643 13.6404C212.338 13.6404 211.291 14.0347 210.488 14.8098C209.713 15.585 209.224 16.564 209.02 17.7199Z" fill="#FFFCF7"/>
<path d="M185.073 25.6069V12.0086H187.113V14.0755C187.426 13.5316 187.915 13.0149 188.582 12.5253C189.248 12.0358 190.145 11.791 191.247 11.791C192.158 11.791 192.987 12.0358 193.749 12.5253C194.524 13.0013 195.136 13.6676 195.571 14.5379C195.748 14.2251 196.034 13.858 196.414 13.4228C196.809 12.9877 197.325 12.6069 197.964 12.2806C198.604 11.9542 199.365 11.791 200.249 11.791C201.133 11.791 201.935 12.0222 202.697 12.4709C203.458 12.9197 204.07 13.5724 204.546 14.4291C205.036 15.2586 205.28 16.2513 205.28 17.3935V25.6069H203.241V17.4479C203.241 16.3057 202.914 15.3946 202.262 14.7011C201.622 13.9939 200.834 13.6404 199.868 13.6404C198.903 13.6404 198.005 13.9804 197.285 14.6467C196.564 15.313 196.197 16.2649 196.197 17.4751V25.6069H194.157V17.4479C194.157 16.3057 193.831 15.3946 193.178 14.7011C192.539 13.9939 191.75 13.6404 190.785 13.6404C189.819 13.6404 188.922 13.9804 188.201 14.6467C187.48 15.313 187.113 16.2649 187.113 17.4751V25.6069H185.073Z" fill="#FFFCF7"/>
<path d="M176.588 25.8245C175.214 25.8245 174.017 25.5118 172.998 24.8998C171.978 24.2607 171.203 23.4176 170.659 22.3433C170.115 21.2691 169.843 20.0996 169.843 18.8078C169.843 17.5159 170.115 16.3193 170.659 15.2722C171.203 14.1979 171.978 13.3548 172.998 12.7429C174.017 12.1038 175.214 11.791 176.588 11.791C177.961 11.791 179.185 12.1038 180.178 12.7429C181.197 13.3548 181.973 14.1979 182.516 15.2722C183.06 16.3193 183.332 17.5023 183.332 18.8078C183.332 20.1132 183.06 21.2691 182.516 22.3433C181.973 23.4176 181.197 24.2607 180.178 24.8998C179.185 25.5118 177.988 25.8245 176.588 25.8245ZM176.588 23.9751C177.607 23.9751 178.451 23.744 179.144 23.268C179.851 22.7921 180.381 22.1666 180.749 21.3915C181.116 20.5891 181.293 19.7325 181.293 18.8078C181.293 17.8831 181.116 16.9992 180.749 16.2241C180.381 15.449 179.851 14.8234 179.144 14.3475C178.451 13.8716 177.607 13.6404 176.588 13.6404C175.568 13.6404 174.738 13.8716 174.031 14.3475C173.324 14.8234 172.794 15.449 172.426 16.2241C172.059 16.9992 171.883 17.8695 171.883 18.8078C171.883 19.7461 172.059 20.5891 172.426 21.3915C172.794 22.1666 173.324 22.7921 174.031 23.268C174.738 23.744 175.595 23.9751 176.588 23.9751Z" fill="#FFFCF7"/>
<path d="M153.103 25.6068V7.60254H155.142V15.5984H165.613V7.60254H167.653V25.6068H165.613V17.5837H155.142V25.6068H153.103Z" fill="#FFFCF7"/>
<path d="M138.214 25.6069V12.0086H140.254V14.1299C140.743 13.4772 141.341 12.9197 142.049 12.4709C142.756 12.0222 143.667 11.791 144.768 11.791C145.707 11.791 146.59 12.0222 147.406 12.4709C148.236 12.9061 148.916 13.5724 149.419 14.4563C149.949 15.3266 150.208 16.4009 150.208 17.6927V25.6069H148.168V17.7471C148.168 16.5096 147.814 15.5306 147.107 14.7827C146.4 14.0211 145.489 13.6404 144.36 13.6404C143.599 13.6404 142.905 13.8172 142.293 14.1571C141.681 14.4971 141.178 14.9866 140.798 15.6258C140.43 16.2377 140.254 16.9584 140.254 17.7743V25.6069H138.214Z" fill="#FFFCF7"/>
<path d="M130.067 25.8245C128.694 25.8245 127.484 25.5118 126.45 24.8998C125.417 24.2607 124.614 23.4176 124.03 22.3433C123.472 21.2691 123.187 20.0996 123.187 18.8078C123.187 17.5159 123.458 16.3193 124.002 15.2722C124.546 14.1979 125.321 13.3548 126.341 12.7429C127.361 12.1038 128.558 11.791 129.931 11.791C131.305 11.791 132.529 12.1038 133.521 12.7429C134.541 13.3548 135.316 14.1979 135.86 15.2722C136.404 16.3193 136.676 17.5023 136.676 18.8078V19.6237H125.281C125.389 20.426 125.648 21.1603 126.042 21.8266C126.464 22.4793 127.008 23.0097 127.701 23.404C128.395 23.7848 129.183 23.9751 130.094 23.9751C131.06 23.9751 131.862 23.7712 132.515 23.3496C133.168 22.9145 133.671 22.3569 134.038 21.6906H136.268C135.792 22.9009 135.044 23.9071 134.011 24.6823C132.991 25.4438 131.685 25.8245 130.067 25.8245ZM125.308 17.7199H134.555C134.378 16.564 133.888 15.585 133.086 14.8098C132.284 14.0347 131.237 13.6404 129.931 13.6404C128.626 13.6404 127.579 14.0347 126.776 14.8098C126.001 15.585 125.512 16.564 125.308 17.7199Z" fill="#FFFCF7"/>
<path d="M108.799 30.9919V12.0086H110.839V14.1843C111.342 13.4364 111.994 12.8653 112.797 12.4437C113.613 12.0086 114.578 11.791 115.707 11.791C117.026 11.791 118.182 12.1038 119.161 12.7429C120.153 13.3548 120.929 14.1979 121.472 15.2722C122.016 16.3193 122.288 17.5023 122.288 18.8078C122.288 20.1132 122.016 21.2691 121.472 22.3433C120.929 23.4176 120.153 24.2607 119.161 24.8998C118.182 25.5118 117.026 25.8245 115.707 25.8245C114.578 25.8245 113.613 25.6069 112.797 25.1718C111.994 24.723 111.342 24.1247 110.839 23.404V30.9919H108.799ZM115.435 23.9751C116.455 23.9751 117.311 23.744 118.019 23.268C118.739 22.7921 119.297 22.1666 119.678 21.3915C120.058 20.5891 120.249 19.7325 120.249 18.8078C120.249 17.8831 120.058 16.9992 119.678 16.2241C119.297 15.449 118.739 14.8234 118.019 14.3475C117.311 13.8716 116.455 13.6404 115.435 13.6404C114.415 13.6404 113.585 13.8716 112.878 14.3475C112.171 14.8234 111.641 15.449 111.274 16.2241C110.907 16.9992 110.73 17.8695 110.73 18.8078C110.73 19.7461 110.907 20.5891 111.274 21.3915C111.641 22.1666 112.171 22.7921 112.878 23.268C113.585 23.744 114.442 23.9751 115.435 23.9751Z" fill="#FFFCF7"/>
<path d="M97.7856 25.8241C96.4257 25.8241 95.1883 25.593 94.0596 25.117C92.9309 24.6411 91.9655 23.9884 91.1496 23.1317C90.3473 22.275 89.7353 21.2959 89.3002 20.1944C88.865 19.0658 88.6475 17.8691 88.6475 16.6044C88.6475 15.3398 88.865 14.116 89.3002 13.0145C89.7353 11.913 90.3473 10.9339 91.1496 10.0772C91.9655 9.22054 92.9309 8.56782 94.0596 8.09188C95.1883 7.61594 96.4257 7.38477 97.7856 7.38477C99.1454 7.38477 100.383 7.61594 101.511 8.09188C102.64 8.56782 103.592 9.22054 104.394 10.0772C105.21 10.9339 105.836 11.913 106.271 13.0145C106.706 14.116 106.924 15.3126 106.924 16.6044C106.924 17.8963 106.706 19.0658 106.271 20.1944C105.836 21.2959 105.21 22.275 104.394 23.1317C103.592 23.9884 102.64 24.6411 101.511 25.117C100.383 25.593 99.1454 25.8241 97.7856 25.8241ZM97.7856 23.8388C99.2542 23.8388 100.519 23.526 101.566 22.8869C102.64 22.2342 103.456 21.3639 104.014 20.276C104.598 19.1745 104.884 17.9507 104.884 16.6044C104.884 15.2582 104.598 14.0208 104.014 12.9329C103.456 11.845 102.64 10.9883 101.566 10.3492C100.519 9.69649 99.2542 9.37012 97.7856 9.37012C96.3169 9.37012 95.0795 9.69649 94.0052 10.3492C92.9309 10.9883 92.115 11.845 91.5303 12.9329C90.9728 14.0208 90.6872 15.2446 90.6872 16.6044C90.6872 17.9643 90.9728 19.1745 91.5303 20.276C92.115 21.3639 92.9309 22.2342 94.0052 22.8869C95.0795 23.526 96.3305 23.8388 97.7856 23.8388Z" fill="#FFFCF7"/>
</g>
<defs>
<clipPath id="clip0_4052_153">
<rect width="220.171" height="38.0754" fill="white" transform="translate(0.216797 0.584961)"/>
</clipPath>
</defs>
</svg>
