<?xml version="1.0" encoding="UTF-8"?>
<svg id="Layer_1" width="156" height="35" data-name="Layer 1" xmlns="http://www.w3.org/2000/svg" version="1.1" viewBox="0 0 155.8 34.7">
  <defs>
    <style>
      .cls-1 {
        fill: #fffcf7;
        stroke-width: 0px;
      }

      .cls-2 {
        fill: none;
        stroke: #fffcf7;
        stroke-width: 1.1px;
      }
    </style>
  </defs>
  <path class="cls-2" d="M25.4.5h0c1.4,0,2.7,0,4,.4.8.2,1.5.6,2.2,1.1h0c.9.7,1.5,1.6,2,2.6.5,1.5.7,3.1.6,4.7h0v16.1h0s0,0,0,0c0,1.6-.1,3.2-.6,4.7-.4,1-1.1,1.9-2,2.6h0c-.6.5-1.4.9-2.2,1.1-1.3.3-2.7.5-4,.4h0s0,0,0,0H9.3c-1.4,0-2.7,0-4-.4-.8-.2-1.5-.6-2.2-1.1h0c-.9-.7-1.5-1.6-2-2.6-.5-1.5-.7-3.1-.6-4.7h0V9.3h0s0,0,0,0c0-1.6.1-3.2.6-4.7.4-1,1.1-1.9,2-2.6h0c.6-.5,1.4-.9,2.2-1.1,1.3-.3,2.7-.5,4-.4h0s0,0,0,0h16.1Z"/>
  <path class="cls-1" d="M27.1,6c0-.7-.4-1.1-1-1,0,0-10.3,2-11.5,2.3-.8.2-1,.7-1,1.5,0,0,0,13.4,0,13.4,0,1.3-1.1,1-2.6,1.4-2.6.6-2.6,1.8-2.8,2.1-.3,1.4,0,3,2,3.5.8.2,1.3.1,2.1,0,1.3-.2,1.9-.9,2.5-2,.3-.6.3-1.5.3-2.1,0-3.8,0-7.4,0-11.2s.2-.8.8-1c3.1-.6,6.1-1.2,9.2-1.8.7-.1.8.2.8.9,0,2.9,0,7.5,0,8,0,1.6-3,.6-4.9,2.4-.7.7-.8,1.9-.6,2.6.3,1,1,1.7,2,1.9.7.1,2.8.4,4.1-1.2.9-1.1.8-1.7.8-2.6V6Z"/>
  <path class="cls-1" d="M52,19.9h-5.7l-1.4,4.1h-2.4l5.4-15h2.5l5.4,15h-2.5l-1.4-4.1ZM46.9,18h4.5l-2.2-6.6h0l-2.2,6.6Z"/>
  <path class="cls-1" d="M67.6,18.4c0,3.4-1.8,5.6-4.6,5.6-1.4,0-2.8-.7-3.4-1.9h0v5.4h-2.2v-14.6h2.2v1.8h0c.7-1.2,2.1-2,3.5-1.9,2.8,0,4.6,2.2,4.6,5.6ZM65.2,18.4c0-2.2-1.1-3.7-2.9-3.7s-2.9,1.5-2.9,3.7,1.2,3.7,2.9,3.7,2.9-1.4,2.9-3.7Z"/>
  <path class="cls-1" d="M79.6,18.4c0,3.4-1.8,5.6-4.6,5.6-1.4,0-2.8-.7-3.4-1.9h0v5.4h-2.2v-14.6h2.2v1.8h0c.7-1.2,2.1-2,3.5-1.9,2.8,0,4.6,2.2,4.6,5.6ZM77.3,18.4c0-2.2-1.1-3.7-2.9-3.7s-2.9,1.5-2.9,3.7,1.2,3.7,2.9,3.7,2.9-1.4,2.9-3.7Z"/>
  <path class="cls-1" d="M81.4,8.9h2.2v15h-2.2v-15Z"/>
  <path class="cls-1" d="M95.3,20.7c-.5,2.1-2.5,3.6-4.7,3.3-3.2,0-5.2-2.1-5.2-5.6s2-5.7,5.1-5.7,4.9,2.1,4.9,5.4v.8h-7.7c0,.9.2,1.8.8,2.3.6.6,1.4.9,2.2.9,1.1.1,2.1-.5,2.5-1.5h2.1ZM87.7,17.4h5.5c0-.7-.2-1.4-.7-2-.5-.5-1.2-.8-1.9-.8-.7,0-1.4.3-2,.8-.5.5-.8,1.2-.8,2Z"/>
  <path class="cls-1" d="M114.8,23.9v-11h0l-4.5,10.9h-1.7l-4.5-10.9h0v11h-2.1v-15h2.7l4.9,11.8h0l4.8-11.8h2.7v15h-2.1Z"/>
  <path class="cls-1" d="M128.9,23.9h-2.2v-1.9h0c-.6,1.3-1.9,2.1-3.4,2-1.1,0-2.1-.4-2.9-1.1-.7-.8-1.1-1.8-1-2.9v-7h2.2v6.6c0,1.7.8,2.5,2.3,2.5.7,0,1.4-.3,1.9-.8.5-.5.7-1.3.7-2v-6.3h2.2v10.9Z"/>
  <path class="cls-1" d="M135.3,12.8c2.4,0,4.2,1.3,4.2,3.3h-2.1c0-1-.9-1.6-2.2-1.6s-2,.6-2,1.4.5,1.1,1.7,1.4l1.8.4c2.2.5,3,1.3,3,2.9s-1.9,3.3-4.5,3.3-4.3-1.3-4.5-3.3h2.2c.2,1.1,1,1.6,2.4,1.6s2.2-.6,2.2-1.4-.4-1-1.6-1.3l-2-.5c-2-.5-3-1.5-3-3,0-1.9,1.7-3.3,4.3-3.3Z"/>
  <path class="cls-1" d="M141.5,10.1c0-.5.3-1,.8-1.2.5-.2,1.1-.1,1.4.3.4.4.5.9.3,1.4-.2.5-.7.8-1.2.8-.7,0-1.3-.6-1.3-1.3ZM141.7,13h2.2v10.9h-2.2v-10.9Z"/>
  <path class="cls-1" d="M153.6,16.7c-.2-1.2-1.3-2.1-2.6-2-1.7,0-2.9,1.4-2.9,3.7s1.2,3.7,2.9,3.7c1.2.1,2.4-.7,2.6-2h2.2c-.3,2.4-2.4,4.1-4.7,3.8-3.1,0-5.2-2.1-5.2-5.6s2-5.6,5.1-5.6c2.4-.2,4.5,1.5,4.7,3.9h-2.1Z"/>
</svg>