<svg width="177" height="38" viewBox="0 0 177 38" fill="none" xmlns="http://www.w3.org/2000/svg">
<path d="M26.4424 2.21394H26.4526L26.4627 2.21355C27.8139 2.16205 29.1653 2.30246 30.4778 2.6295C31.2633 2.86262 31.9963 3.2453 32.6394 3.75618L32.6403 3.75687C33.4954 4.43318 34.1685 5.31115 34.5962 6.31247C35.0899 7.81666 35.307 9.39961 35.2355 10.981L35.2349 10.9931V11.0051V27.0829V27.095L35.2355 27.107C35.307 28.6888 35.0912 30.2717 34.5963 31.7754C34.1686 32.7768 33.4955 33.6548 32.6403 34.3312L32.639 34.3322C31.9978 34.8426 31.2636 35.2253 30.4778 35.4585C29.1653 35.7856 27.8139 35.926 26.4627 35.8745L26.4526 35.8741H26.4424H10.3646H10.3544L10.3443 35.8745C8.99303 35.926 7.64161 35.7856 6.3291 35.4585C5.54361 35.2254 4.81063 34.8427 4.16749 34.3319L4.16663 34.3312C3.31154 33.6548 2.63844 32.7769 2.21072 31.7756C1.71707 30.2714 1.49999 28.6884 1.57145 27.107L1.57199 27.095V27.0829V11.0051V10.9931L1.57145 10.9811C1.49997 9.39924 1.71579 7.81638 2.21064 6.31267C2.63835 5.31125 3.31148 4.43322 4.16662 3.75688L4.16662 3.75688L4.16791 3.75585C4.80918 3.24543 5.54332 2.8627 6.3291 2.6295C7.64161 2.30246 8.99303 2.16205 10.3443 2.21355L10.3544 2.21394H10.3646H26.4424Z" stroke="#FFFCF7" stroke-width="1.06541"/>
<path d="M28.1321 7.65274C28.1208 7.00145 27.7556 6.55316 27.1185 6.6603C27.1185 6.6603 16.7852 8.68466 15.5813 8.93558C14.8003 9.09911 14.5396 9.58828 14.5564 10.4087C14.5537 10.4778 14.5564 23.7997 14.5564 23.7997C14.5564 25.1416 13.4189 24.8231 11.9076 25.2037C9.3405 25.8493 9.26719 26.9842 9.09944 27.3423C8.83723 28.7732 9.17134 30.3563 11.1111 30.8214C11.9076 31.0117 12.4052 30.9244 13.1961 30.7721C14.4747 30.5268 15.1218 29.8995 15.6829 28.7266C15.9464 28.1754 15.9718 27.2535 15.9718 26.6486C15.9704 22.8396 15.9704 19.2181 15.9704 15.409C15.9704 14.7732 16.1467 14.5731 16.7726 14.4476C19.833 13.8414 22.9104 13.2014 25.9695 12.5995C26.6574 12.4627 26.7322 12.832 26.7322 13.5284C26.7336 16.3803 26.7209 21.0451 26.7209 21.4947C26.7209 23.1018 23.7112 22.1123 21.7827 23.8941C21.106 24.5567 20.9876 25.8028 21.199 26.4837C21.5247 27.5213 22.1972 28.1628 23.2234 28.384C23.8789 28.5264 26.0372 28.7632 27.3116 27.2112C28.1729 26.161 28.1109 25.5238 28.1109 24.5652L28.1321 7.65274Z" fill="#FFFCF7"/>
<path d="M53.056 21.5251H47.3376L45.9653 25.5798H43.543L48.9604 10.5775H51.4762L56.8936 25.5798H54.4294L53.056 21.5251ZM47.9297 19.6542H52.4626L50.2274 13.0729H50.165L47.9297 19.6542Z" fill="#FFFCF7"/>
<path d="M68.5782 20.1114C68.5782 23.5117 66.7588 25.6954 64.0141 25.6954C62.5951 25.7698 61.2586 25.0267 60.5731 23.7826H60.5215V29.1988H58.2754V14.6424H60.4484V16.463H60.4903C61.2059 15.2249 62.5447 14.4818 63.9734 14.5286C66.7492 14.5286 68.5782 16.7219 68.5782 20.1114ZM66.271 20.1114C66.271 17.8977 65.1276 16.4414 63.3801 16.4414C61.665 16.4414 60.5107 17.9276 60.5107 20.1114C60.5107 22.3155 61.665 23.7922 63.3801 23.7922C65.1264 23.7922 66.271 22.3467 66.271 20.1114Z" fill="#FFFCF7"/>
<path d="M80.6075 20.1114C80.6075 23.5117 78.7881 25.6954 76.0433 25.6954C74.6243 25.7698 73.2879 25.0267 72.6024 23.7826H72.5507V29.1988H70.3047V14.6424H72.4777V16.463H72.5196C73.2352 15.2249 74.5739 14.4818 76.0026 14.5286C78.7773 14.5286 80.6075 16.7219 80.6075 20.1114ZM78.299 20.1114C78.299 17.8977 77.1556 16.4414 75.4081 16.4414C73.693 16.4414 72.5388 17.9276 72.5388 20.1114C72.5388 22.3155 73.693 23.7922 75.4081 23.7922C77.1556 23.7922 78.299 22.3467 78.299 20.1114Z" fill="#FFFCF7"/>
<path d="M82.417 10.5775H84.6619V25.581H82.417V10.5775Z" fill="#FFFCF7"/>
<path d="M96.3491 22.3687C95.8386 24.5069 93.8262 25.9367 91.6388 25.7163C88.4579 25.7163 86.4814 23.584 86.4814 20.1646C86.4814 16.7331 88.4675 14.5085 91.5454 14.5085C94.5705 14.5085 96.4737 16.588 96.4737 19.9045V20.6739H88.7491V20.8093C88.6772 21.6232 88.9576 22.4298 89.521 23.023C90.0843 23.6164 90.8742 23.9388 91.6916 23.9076C92.7811 24.0095 93.8082 23.3839 94.2181 22.3687H96.3491ZM88.7587 19.1038H94.2277C94.2685 18.3715 94.0024 17.656 93.493 17.1298C92.9836 16.6025 92.2777 16.3124 91.5454 16.3279C90.807 16.3232 90.0963 16.6144 89.5737 17.1358C89.0499 17.656 88.7575 18.3644 88.7587 19.1038Z" fill="#FFFCF7"/>
<path d="M115.844 25.581V14.5387H115.771L111.248 25.4671H109.521L104.989 14.5387H104.917V25.581H102.795V10.5775H105.487L110.344 22.4192H110.427L115.273 10.5775H117.976V25.581H115.844Z" fill="#FFFCF7"/>
<path d="M129.934 25.5803H127.783V23.6985H127.729C127.138 25.0169 125.781 25.82 124.34 25.7049C123.267 25.7672 122.223 25.3537 121.483 24.5734C120.743 23.7932 120.386 22.7277 120.505 21.661V14.6422H122.751V21.2247C122.751 22.8883 123.541 23.7716 125.09 23.7716C125.827 23.7956 126.539 23.4972 127.038 22.9542C127.538 22.4112 127.775 21.6765 127.69 20.9442V14.6434H129.935L129.934 25.5803Z" fill="#FFFCF7"/>
<path d="M136.32 14.5177C138.742 14.5177 140.478 15.86 140.53 17.7934H138.421C138.326 16.8261 137.506 16.234 136.259 16.234C135.041 16.234 134.231 16.795 134.231 17.6483C134.231 18.3027 134.771 18.739 135.905 19.0206L137.744 19.4462C139.949 19.9771 140.781 20.7885 140.781 22.3898C140.781 24.365 138.909 25.717 136.238 25.717C133.66 25.717 131.922 24.3962 131.757 22.3994H133.981C134.138 23.4505 134.979 24.0114 136.342 24.0114C137.683 24.0114 138.526 23.4601 138.526 22.5864C138.526 21.9115 138.11 21.5472 136.966 21.256L135.012 20.7777C133.036 20.2995 132.039 19.2916 132.039 17.7742C132.036 15.8385 133.772 14.5177 136.32 14.5177Z" fill="#FFFCF7"/>
<path d="M142.531 11.7623C142.519 11.2314 142.831 10.7472 143.319 10.5374C143.806 10.3277 144.373 10.4331 144.75 10.8059C145.129 11.1786 145.244 11.742 145.041 12.2334C144.838 12.7236 144.359 13.0436 143.829 13.0412C143.118 13.046 142.537 12.4743 142.531 11.7623ZM142.706 14.6424H144.952V25.5804H142.706V14.6424Z" fill="#FFFCF7"/>
<path d="M154.625 18.4052C154.421 17.1648 153.299 16.2874 152.047 16.3881C150.322 16.3881 149.178 17.8335 149.178 20.1108C149.178 22.4396 150.331 23.8442 152.069 23.8442C153.307 23.9678 154.427 23.106 154.626 21.8787H156.787C156.508 24.2314 154.404 25.9322 152.046 25.7164C148.927 25.7164 146.889 23.5841 146.889 20.1119C146.889 16.7129 148.926 14.5087 152.024 14.5087C154.4 14.3074 156.504 16.0369 156.765 18.4065L154.625 18.4052Z" fill="#FFFCF7"/>
</svg>
