<svg width="90" height="32" viewBox="0 0 90 32" fill="none" xmlns="http://www.w3.org/2000/svg">
<g clip-path="url(#clip0_4015_2001)">
<mask id="mask0_4015_2001" style="mask-type:luminance" maskUnits="userSpaceOnUse" x="1" y="1" width="88" height="31">
<path d="M88.7118 1.27197H1.53809V31.5471H88.7118V1.27197Z" fill="white"/>
</mask>
<g mask="url(#mask0_4015_2001)">
<path opacity="0.982" fill-rule="evenodd" clip-rule="evenodd" d="M8.28493 13.6102C6.60247 12.262 4.89096 10.9543 3.15039 9.68453C5.38494 5.39271 8.8748 2.69035 13.6199 1.58325C18.0309 0.740572 22.0584 1.6123 25.6993 4.20134C26.1323 4.5326 26.5362 4.90163 26.9082 5.30844L22.5785 9.63803C19.5361 7.14779 16.2149 6.74679 12.6146 8.42924C10.5427 9.63222 9.09855 11.3612 8.28493 13.6102Z" fill="#FFFCF7"/>
<path opacity="0.958" fill-rule="evenodd" clip-rule="evenodd" d="M46.2275 8.87951C47.0005 8.86207 47.7706 8.87951 48.5435 8.9289C51.0308 12.8808 53.5299 16.8209 56.0433 20.7554C55.9968 16.8006 55.9794 12.8401 55.9939 8.87951H57.9059V23.9779C57.2347 23.9953 56.5635 23.9779 55.8923 23.9285C53.2799 19.8255 50.6792 15.7168 48.0902 11.5993C48.0408 15.7255 48.0234 19.8517 48.0408 23.9808H46.2275V8.87951Z" fill="#FFFCF7"/>
<path opacity="0.984" fill-rule="evenodd" clip-rule="evenodd" d="M3.14862 9.68384C4.88919 10.9537 6.6007 12.2612 8.28315 13.6095C7.74848 15.5215 7.74848 17.4335 8.28315 19.3455C6.57164 20.624 4.86013 21.8968 3.14862 23.1695C1.00124 18.6772 1.00124 14.182 3.14862 9.68384Z" fill="#FFFCF7"/>
<path opacity="0.944" fill-rule="evenodd" clip-rule="evenodd" d="M84.0731 10.088H85.9851V13.2088H88.6032V14.9203H85.9851C85.9386 17.2071 85.988 19.4911 86.1362 21.7634C86.5053 22.4928 87.0922 22.7426 87.8971 22.5189C88.1586 22.4055 88.426 22.3213 88.702 22.2661C88.7194 22.8705 88.702 23.4748 88.6526 24.0793C87.1329 24.6604 85.7933 24.3931 84.6252 23.2743C84.3782 22.8676 84.2097 22.4318 84.1224 21.9668C84.0731 19.6189 84.0556 17.271 84.0731 14.9203H82.1611V13.2088H84.0731V10.088Z" fill="#FFFCF7"/>
<path opacity="0.954" fill-rule="evenodd" clip-rule="evenodd" d="M65.1543 12.8048C69.1003 12.9269 71.0124 14.9725 70.8904 18.9447H62.3357C62.5158 21.156 63.7072 22.3968 65.9098 22.6699C67.3482 22.574 68.4204 21.9028 69.1294 20.6562C69.6583 20.9293 70.1784 21.2141 70.6899 21.5105C69.295 23.8555 67.2465 24.762 64.5499 24.2273C62.1439 23.5329 60.784 21.9377 60.4731 19.4474C60.2029 17.1663 60.9264 15.2718 62.6379 13.7608C63.408 13.2319 64.2477 12.9124 65.1543 12.8048ZM65.4565 14.5163C67.4034 14.5511 68.5454 15.5246 68.8795 17.4366C66.7321 17.4715 64.5848 17.4366 62.4374 17.3349C62.8384 15.7251 63.8467 14.7836 65.4565 14.5163Z" fill="#FFFCF7"/>
<path opacity="0.945" fill-rule="evenodd" clip-rule="evenodd" d="M76.3232 12.8053C78.0725 12.6542 79.5341 13.2267 80.7022 14.5168C80.8069 14.7435 80.923 14.9614 81.0538 15.1706C80.5686 15.4902 80.0484 15.7402 79.4935 15.926C78.363 14.5052 76.9712 14.1855 75.3149 14.9701C74.51 15.6413 74.51 16.3125 75.3149 16.9838C76.39 17.4196 77.4971 17.7567 78.6363 17.9892C81.1729 18.8493 81.8617 20.4766 80.6993 22.8709C79.8915 23.7194 78.9007 24.2046 77.7296 24.3296C75.251 24.6347 73.4726 23.6787 72.3945 21.4616C72.9031 21.1391 73.4406 20.8718 74.0044 20.6566C75.1841 22.6878 76.8259 23.173 78.9355 22.1153C79.5022 21.4093 79.4672 20.7381 78.8339 20.1017C78.5665 19.968 78.2962 19.8344 78.0289 19.6978C76.7998 19.3898 75.5909 19.0207 74.4054 18.5907C72.8741 17.687 72.4207 16.394 73.0454 14.7144C73.8446 13.5753 74.9342 12.9389 76.3232 12.8053Z" fill="#FFFCF7"/>
<path opacity="0.982" fill-rule="evenodd" clip-rule="evenodd" d="M26.7004 27.9033C25.1138 26.5551 23.4721 25.2823 21.7693 24.0793C23.3384 22.9751 24.3438 21.4845 24.7884 19.6015C22.0715 19.5521 19.3545 19.5347 16.6348 19.5521V13.6127C21.4235 13.5808 26.2035 13.6127 30.9778 13.7145C31.6984 17.8232 31.0271 21.6821 28.964 25.2911C28.3276 26.2586 27.5722 27.1333 26.7004 27.9033Z" fill="#FFFCF7"/>
<path opacity="0.985" fill-rule="evenodd" clip-rule="evenodd" d="M8.27905 19.3489C10.4933 24.3468 14.2824 26.2443 19.6523 25.0355C20.3874 24.7682 21.0907 24.4515 21.7648 24.0795C23.4676 25.2825 25.1123 26.5582 26.6959 27.9035C24.4323 29.9899 21.7474 31.1812 18.644 31.4775C12.2222 31.9977 7.23877 29.6005 3.69661 24.28C3.51065 23.9051 3.32467 23.5361 3.1416 23.1729C4.85311 21.9002 6.56462 20.6246 8.27905 19.3489Z" fill="#FFFCF7"/>
</g>
</g>
<defs>
<clipPath id="clip0_4015_2001">
<rect width="89.2569" height="31.2399" fill="white" transform="translate(0.50293 0.355225)"/>
</clipPath>
</defs>
</svg>
