<svg width="62" height="32" viewBox="0 0 62 32" fill="none" xmlns="http://www.w3.org/2000/svg">
<g clip-path="url(#clip0_4015_2033)">
<path d="M53.4069 8.81989C48.2347 8.81989 44.5334 12.8492 44.0854 18.7508H42.4043C41.779 18.7508 41.4043 19.1694 41.4043 19.8671C41.4043 20.5648 41.779 20.9835 42.4043 20.9835H44.0777C44.4626 27.0595 48.26 30.9347 53.9892 30.9347C56.3791 30.9347 58.2551 30.516 59.8931 29.6178C60.2931 29.3997 60.7463 28.9868 60.6323 28.2485C60.6181 28.1063 60.5767 27.9695 60.511 27.8479C60.4454 27.7263 60.3571 27.6228 60.2526 27.5449C59.9893 27.356 59.6196 27.3356 59.1842 27.4868C58.8848 27.5951 58.5877 27.7114 58.2931 27.8357C57.245 28.2601 56.3411 28.6293 54.2449 28.6293C49.8145 28.6293 46.8828 25.6552 46.7714 21.0561V20.9835H60.5538C61.3462 20.9835 61.7994 20.5067 61.8323 19.6374V19.4688C61.8171 9.59029 55.3816 8.81989 53.4069 8.81989ZM59.4222 18.7508H46.7639L46.774 18.649C47.0803 14.0557 49.7132 11.0875 53.4803 11.0875C56.3513 11.0875 59.4222 13.0789 59.4222 18.6635V18.7508ZM25.2294 10.6252C25.2294 9.65134 24.7358 9.07281 23.913 9.07281C23.0901 9.07281 22.5966 9.65424 22.5966 10.6252V18.7508H25.2294V10.6252ZM36.0903 21.7219C36.0903 25.571 33.6903 28.5857 30.6219 28.5857C26.994 28.5857 25.2294 26.3675 25.2294 21.8032V20.9835H22.5966V21.9719C22.5966 27.92 25.0396 30.9347 29.8574 30.9347C32.6928 30.9347 34.7763 29.5218 36.0422 26.7338L36.0929 26.6291V29.1322C36.0929 30.1032 36.5814 30.6846 37.4067 30.6846C38.2296 30.6846 38.7233 30.1032 38.7233 29.1322V20.9835H36.0903V21.7219ZM37.4067 9.07281C36.5814 9.07281 36.0903 9.65424 36.0903 10.6252V18.7508H38.7233V10.6252C38.7233 9.65134 38.2296 9.07281 37.4067 9.07281ZM10.3002 8.81989C6.09763 8.81989 4.45204 11.9363 4.04444 12.8899L3.70267 13.6981V2.29331C3.70267 1.28452 3.19887 0.659485 2.38621 0.659485C1.57607 0.659485 1.07227 1.28452 1.07227 2.29331V18.7508H3.70267V18.7071C3.70267 15.0762 5.52547 11.1718 9.53563 11.1718C12.8015 11.1718 14.6015 13.5789 14.6015 17.9512V18.7508H17.2345V18.0356C17.2345 12.0933 14.7711 8.81989 10.3002 8.81989ZM1.07227 29.048C1.07227 30.0567 1.57607 30.6846 2.38874 30.6846C3.19887 30.6846 3.70267 30.0567 3.70267 29.048V20.9835H1.07227V29.048ZM14.6015 29.048C14.6015 30.0567 15.1078 30.6846 15.918 30.6846C16.7281 30.6846 17.2345 30.0567 17.2345 29.048V20.9835H14.6015V29.048Z" fill="#FFFCF7"/>
</g>
<defs>
<clipPath id="clip0_4015_2033">
<rect width="61.3641" height="31.2399" fill="white" transform="translate(0.523438 0.654053)"/>
</clipPath>
</defs>
</svg>
