<svg width="118" height="38" viewBox="0 0 118 38" fill="none" xmlns="http://www.w3.org/2000/svg">
<g clip-path="url(#clip0_4015_1999)">
<path d="M17.7 1.39917C8.01432 1.39917 0.162109 9.21481 0.162109 18.8557C0.162109 28.497 8.01432 36.312 17.7 36.312C27.3868 36.312 35.2382 28.497 35.2382 18.8557C35.2382 9.21544 27.3869 1.39917 17.7 1.39917ZM25.7428 26.5764C25.4286 27.0893 24.7543 27.2519 24.2392 26.9372C20.1214 24.4336 14.9377 23.8666 8.83296 25.2549C8.24468 25.3883 7.6583 25.0214 7.52426 24.4356C7.3896 23.8499 7.75672 23.2662 8.34647 23.1328C15.0272 21.6135 20.7577 22.2677 25.3805 25.0798C25.8957 25.3946 26.059 26.0637 25.7428 26.5764ZM27.8894 21.8233C27.4936 22.4637 26.6518 22.6659 26.0088 22.2719C21.2946 19.3877 14.1086 18.5524 8.53265 20.2371C7.8095 20.4545 7.04573 20.0489 6.82624 19.3303C6.60845 18.6106 7.01619 17.8518 7.73808 17.6329C14.1073 15.7093 22.0255 16.641 27.4391 19.9524C28.0821 20.3463 28.2853 21.1841 27.8894 21.8233ZM28.0738 16.8737C22.4213 13.5319 13.0956 13.2246 7.69892 14.855C6.83231 15.1166 5.91587 14.6296 5.65325 13.7671C5.39063 12.9041 5.87943 11.9925 6.74666 11.7302C12.9417 9.85832 23.2402 10.22 29.7479 14.0654C30.529 14.5259 30.7845 15.5279 30.3217 16.3028C29.861 17.0786 28.8507 17.3343 28.0738 16.8737ZM47.8771 17.5141C44.8487 16.7953 44.3105 16.2908 44.3105 15.2309C44.3105 14.2294 45.2572 13.5555 46.6665 13.5555C48.032 13.5555 49.3848 14.0672 50.8048 15.1208C50.8466 15.1527 50.9011 15.1654 50.9535 15.157C51.008 15.1491 51.0541 15.1202 51.0854 15.0766L52.5639 13.002C52.6248 12.9166 52.6079 12.7988 52.5262 12.7336C50.8362 11.3842 48.9347 10.7282 46.7105 10.7282C43.4413 10.7282 41.1566 12.6813 41.1566 15.4756C41.1566 18.4721 43.1273 19.5332 46.5325 20.3522C49.4289 21.0165 49.9189 21.5732 49.9189 22.5679C49.9189 23.6706 48.9304 24.3564 47.3388 24.3564C45.5712 24.3564 44.1283 23.7623 42.5157 22.374C42.4759 22.3386 42.4215 22.324 42.3713 22.326C42.3168 22.3303 42.2686 22.3553 42.2351 22.3949L40.5764 24.3585C40.5074 24.4419 40.5157 24.5628 40.5953 24.6337C42.4718 26.3013 44.7796 27.181 47.2718 27.181C50.7943 27.181 53.0708 25.2653 53.0708 22.299C53.0771 19.796 51.5713 18.4098 47.8833 17.5168L47.8771 17.5141ZM61.0416 14.5415C59.5148 14.5415 58.2624 15.1402 57.2278 16.3669V14.9861C57.2278 14.8771 57.1399 14.7883 57.031 14.7883H54.319C54.2101 14.7883 54.1222 14.8771 54.1222 14.9861V30.3287C54.1222 30.4371 54.2101 30.5267 54.319 30.5267H57.031C57.1399 30.5267 57.2278 30.4371 57.2278 30.3287V25.4863C58.2624 26.639 59.5148 27.2039 61.0416 27.2039C63.8793 27.2039 66.7526 25.0297 66.7526 20.8734C66.7568 16.7161 63.8834 14.5413 61.0436 14.5413L61.0416 14.5415ZM63.5987 20.8734C63.5987 22.989 62.2897 24.467 60.4132 24.467C58.5598 24.467 57.1609 22.9223 57.1609 20.8734C57.1609 18.8243 58.5598 17.28 60.4132 17.28C62.2582 17.2798 63.5987 18.7909 63.5987 20.8734ZM74.1139 14.5415C70.4594 14.5415 67.5966 17.3423 67.5966 20.9186C67.5966 24.4565 70.4405 27.2269 74.0699 27.2269C77.737 27.2269 80.6081 24.4356 80.6081 20.8734C80.6081 17.3232 77.7558 14.5415 74.1139 14.5415ZM74.1139 24.4877C72.1704 24.4877 70.7044 22.9326 70.7044 20.8723C70.7044 18.8025 72.1201 17.3006 74.0699 17.3006C76.0259 17.3006 77.5003 18.8551 77.5003 20.9176C77.5003 22.9869 76.0762 24.4877 74.1139 24.4877ZM88.4114 14.7883H85.4271V11.7519C85.4271 11.6431 85.3391 11.5543 85.2302 11.5543H82.5181C82.4092 11.5543 82.3192 11.6431 82.3192 11.7519V14.7883H81.0166C80.9077 14.7883 80.8197 14.8771 80.8197 14.9861V17.3057C80.8197 17.4145 80.9077 17.5035 81.0166 17.5035H82.3192V23.5059C82.3192 25.9303 83.5317 27.1602 85.9255 27.1602C86.8973 27.1602 87.7035 26.96 88.4637 26.5306C88.5265 26.4973 88.5642 26.4306 88.5642 26.3597V24.1501C88.5642 24.0834 88.5287 24.0188 88.47 23.9833C88.4114 23.9458 88.3381 23.9437 88.2773 23.9749C87.7558 24.2356 87.2512 24.3564 86.6857 24.3564C85.8166 24.3564 85.4271 23.9624 85.4271 23.0828V17.5045H88.4114C88.5203 17.5045 88.6082 17.4157 88.6082 17.3067V14.9873C88.6124 14.8783 88.5244 14.7895 88.4134 14.7895L88.4114 14.7883ZM98.8073 14.8002V14.4272C98.8073 13.3302 99.2303 12.8409 100.177 12.8409C100.742 12.8409 101.197 12.9526 101.706 13.1215C101.769 13.1411 101.834 13.1312 101.884 13.094C101.936 13.0567 101.965 12.9968 101.965 12.9334V10.6592C101.965 10.5723 101.911 10.4954 101.825 10.4697C101.289 10.3107 100.602 10.1474 99.5716 10.1474C97.069 10.1474 95.7434 11.5512 95.7434 14.2054V14.7767H94.4407C94.3318 14.7767 94.2418 14.8654 94.2418 14.9743V17.3057C94.2418 17.4145 94.3318 17.5035 94.4407 17.5035H95.7434V26.76C95.7434 26.8704 95.8334 26.958 95.9423 26.958H98.6523C98.7633 26.958 98.8512 26.8704 98.8512 26.76V17.504H101.383L105.262 26.76C104.822 27.7313 104.388 27.9252 103.798 27.9252C103.32 27.9252 102.816 27.7834 102.303 27.502C102.254 27.477 102.196 27.4728 102.145 27.4874C102.093 27.5062 102.049 27.5438 102.028 27.5938L101.109 29.6012C101.065 29.6971 101.103 29.8075 101.195 29.8576C102.154 30.3745 103.019 30.5956 104.089 30.5956C106.091 30.5956 107.199 29.6658 108.173 27.1686L112.877 15.0703C112.901 15.0094 112.894 14.9407 112.856 14.8867C112.82 14.8331 112.759 14.8008 112.694 14.8008H109.871C109.785 14.8008 109.71 14.8543 109.683 14.9334L106.791 23.1537L103.624 14.928C103.595 14.8514 103.521 14.8008 103.44 14.8008L98.8073 14.8002ZM92.78 14.7883H90.0679C89.959 14.7883 89.869 14.8771 89.869 14.9861V26.76C89.869 26.8704 89.959 26.958 90.0679 26.958H92.78C92.8889 26.958 92.9789 26.8704 92.9789 26.76V14.987C92.9789 14.878 92.891 14.7883 92.78 14.7883ZM91.4397 9.42702C90.3653 9.42702 89.4941 10.2925 89.4941 11.3617C89.4941 12.4315 90.3653 13.298 91.4397 13.298C92.514 13.298 93.3831 12.4315 93.3831 11.3617C93.3831 10.2927 92.512 9.42702 91.4397 9.42702ZM115.193 18.5741C114.121 18.5741 113.285 17.7163 113.285 16.6746C113.285 15.633 114.131 14.7654 115.203 14.7654C116.275 14.7654 117.111 15.623 117.111 16.6638C117.111 17.7054 116.265 18.5741 115.193 18.5741ZM115.203 14.9542C114.225 14.9542 113.486 15.7276 113.486 16.6746C113.486 17.6212 114.221 18.3842 115.193 18.3842C116.171 18.3842 116.91 17.6114 116.91 16.6638C116.91 15.7172 116.175 14.9542 115.203 14.9542ZM115.626 16.8592L116.166 17.6113H115.71L115.224 16.9212H114.807V17.6113H114.427V15.6176H115.318C115.786 15.6176 116.091 15.8546 116.091 16.2536C116.094 16.5805 115.903 16.7801 115.628 16.8592H115.626ZM115.304 15.9597H114.807V16.5902H115.304C115.551 16.5902 115.7 16.4696 115.7 16.2746C115.7 16.0695 115.551 15.9597 115.304 15.9597Z" fill="#FFFCF7"/>
</g>
<defs>
<clipPath id="clip0_4015_1999">
<rect width="117.15" height="36.8185" fill="white" transform="translate(0.109375 0.565674)"/>
</clipPath>
</defs>
</svg>
