<svg width="92" height="21" viewBox="0 0 92 21" fill="none" xmlns="http://www.w3.org/2000/svg">
<g clip-path="url(#clip0_4015_2028)">
<path fill-rule="evenodd" clip-rule="evenodd" d="M14.4145 1.62051V12.1495C14.4145 15.6655 12.8581 17.1256 9.20771 17.1256C5.55695 17.1256 4.00059 15.6655 4.00059 12.1495V1.1593H0.484642C0.177381 1.1593 0.0234375 1.31325 0.0234375 1.62051V12.3222C0.0234375 18.2019 3.77014 20.2577 9.20771 20.2577C14.6449 20.2577 18.3917 18.2019 18.3917 12.3222V1.1593H14.8754C14.5682 1.1593 14.4145 1.31325 14.4145 1.62051Z" fill="#FFFCF7"/>
<path fill-rule="evenodd" clip-rule="evenodd" d="M65.3854 4.21436C65.6735 4.21436 65.808 4.11842 65.904 3.90678L66.9226 1.38975C66.9803 1.23643 66.9226 1.1593 66.7687 1.1593H52.6083C51.2824 1.1593 50.7832 1.56281 50.7832 2.46579V18.8165C50.7832 19.5852 51.167 19.9311 52.1857 19.9311H65.3854C65.6735 19.9311 65.808 19.8348 65.904 19.6238L66.9226 17.1064C66.9803 16.9528 66.9226 16.876 66.7687 16.876H54.6836V13.552C54.6836 12.3991 55.3176 11.8802 57.0273 11.8802H62.2729C62.5611 11.8802 62.6952 11.7846 62.7915 11.5733L63.7716 9.15216C63.829 8.99821 63.7716 8.92172 63.6177 8.92172H54.6836V4.21436H65.3854Z" fill="#FFFCF7"/>
<path fill-rule="evenodd" clip-rule="evenodd" d="M36.768 16.9146H29.8298V13.4751C29.8298 12.3222 30.4638 11.8037 32.174 11.8037H36.768C38.9774 11.8037 39.5923 12.6489 39.5923 14.3784C39.5923 16.1075 38.9774 16.9146 36.768 16.9146ZM29.8298 4.17579H36.0377C38.1126 4.17579 38.6892 4.95742 38.6892 6.57744C38.6892 8.19777 38.1126 8.9794 36.0377 8.9794H29.8298V4.17579ZM40.457 10.036C41.9939 9.22898 42.6278 7.71117 42.6278 5.92435C42.6278 1.77414 39.2464 1.1593 35.7496 1.1593H27.7567C26.4308 1.1593 25.9316 1.56281 25.9316 2.46579V18.8165C25.9316 19.5852 26.3158 19.9311 27.3341 19.9311H37.1714C40.8796 19.9311 43.5309 18.4901 43.5309 14.7433C43.5309 12.4953 42.5701 10.5932 40.457 10.036Z" fill="#FFFCF7"/>
<path fill-rule="evenodd" clip-rule="evenodd" d="M84.1284 9.86293H77.5957V4.1761H84.1284C86.5683 4.1761 87.1064 5.11732 87.1064 7.01952C87.1064 8.94084 86.5683 9.86293 84.1284 9.86293ZM91.4679 19.6044L87.2602 12.3799C89.3543 11.8423 91.0453 10.459 91.0453 6.94271C91.0453 2.38929 88.2206 1.1593 83.5518 1.1593H75.5207C74.1952 1.1593 73.6953 1.56281 73.6953 2.46579V19.4698C73.6953 19.7771 73.8493 19.9311 74.1565 19.9311H77.5957V14.4553C77.5957 13.3024 78.2297 12.7835 79.9399 12.7835H83.3982L87.2023 19.6238C87.3177 19.8157 87.4331 19.9311 87.7211 19.9311H91.2951C91.545 19.9311 91.545 19.7194 91.4679 19.6044Z" fill="#FFFCF7"/>
</g>
<defs>
<clipPath id="clip0_4015_2028">
<rect width="91.4883" height="20.0828" fill="white" transform="translate(0.0234375 0.232666)"/>
</clipPath>
</defs>
</svg>
